<svg width="32px" height="32px" viewBox="0 0 0.6 0.6" fill="none" xmlns="http://www.w3.org/2000/svg"><path d="M0.1 0.26V0.24H0.08v0.02zm0.16 0V0.24H0.24v0.02zm0 0.16H0.24v0.02h0.02zM0.54 0.14h0.02V0.132L0.554 0.126zM0.42 0.02 0.434 0.006 0.428 0H0.42zM0.1 0.28h0.04V0.24H0.1zm0.02 0.16V0.34H0.08v0.1zm0 -0.1V0.26H0.08v0.08zM0.14 0.32H0.1v0.04h0.04zM0.16 0.3a0.02 0.02 0 0 1 -0.02 0.02v0.04A0.06 0.06 0 0 0 0.2 0.3zM0.14 0.28a0.02 0.02 0 0 1 0.02 0.02H0.2A0.06 0.06 0 0 0 0.14 0.24zM0.24 0.26v0.16h0.04V0.26zm0.02 0.18h0.04V0.4H0.26zM0.36 0.38V0.3H0.32v0.08zM0.3 0.24H0.26v0.04h0.04zm0.06 0.06A0.06 0.06 0 0 0 0.3 0.24v0.04a0.02 0.02 0 0 1 0.02 0.02zM0.3 0.44A0.06 0.06 0 0 0 0.36 0.38H0.32A0.02 0.02 0 0 1 0.3 0.4zM0.4 0.24v0.2h0.04v-0.2zm0.02 0.04h0.1V0.24H0.42zm0 0.08h0.06V0.32H0.42zM0.08 0.2V0.06H0.04V0.2zM0.52 0.14V0.2h0.04V0.14zM0.1 0.04h0.32V0H0.1zM0.406 0.034l0.12 0.12 0.028 -0.028 -0.12 -0.12zM0.08 0.06A0.02 0.02 0 0 1 0.1 0.04V0a0.06 0.06 0 0 0 -0.06 0.06zM0.04 0.48v0.06h0.04V0.48zM0.1 0.6h0.4V0.56h-0.4zM0.56 0.54V0.48H0.52v0.06zM0.5 0.6A0.06 0.06 0 0 0 0.56 0.54H0.52a0.02 0.02 0 0 1 -0.02 0.02zM0.04 0.54A0.06 0.06 0 0 0 0.1 0.6V0.56A0.02 0.02 0 0 1 0.08 0.54z" fill="#000000"/></svg>