<svg width="80px" height="80px" viewBox="0 0 1.5 1.5" fill="none" xmlns="http://www.w3.org/2000/svg"><path d="M0.25 0.65V0.6H0.2v0.05zm0.4 0V0.6H0.6v0.05zm0 0.4H0.6v0.05h0.05zM1.35 0.35h0.05V0.33L1.385 0.315zM1.05 0.05 1.085 0.015 1.07 0H1.05zM0.25 0.7h0.1V0.6H0.25zm0.05 0.4v-0.25H0.2v0.25zm0 -0.25V0.65H0.2v0.2zM0.35 0.8H0.25v0.1h0.1zM0.4 0.75a0.05 0.05 0 0 1 -0.05 0.05v0.1A0.15 0.15 0 0 0 0.5 0.75zM0.35 0.7A0.05 0.05 0 0 1 0.4 0.75H0.5A0.15 0.15 0 0 0 0.35 0.6zm0.25 -0.05v0.4h0.1V0.65zm0.05 0.45H0.75V1H0.65zm0.25 -0.15V0.75H0.8v0.2zM0.75 0.6H0.65v0.1H0.75zM0.9 0.75A0.15 0.15 0 0 0 0.75 0.6v0.1A0.05 0.05 0 0 1 0.8 0.75zM0.75 1.1A0.15 0.15 0 0 0 0.9 0.95H0.8A0.05 0.05 0 0 1 0.75 1zm0.25 -0.5v0.5h0.1v-0.5zm0.05 0.1h0.25V0.6h-0.25zm0 0.2h0.15V0.8H1.05zM0.2 0.5V0.15H0.1V0.5zM1.3 0.35V0.5h0.1V0.35zM0.25 0.1h0.8V0H0.25zM1.015 0.085l0.3 0.3 0.07 -0.07 -0.3 -0.3zM0.2 0.15A0.05 0.05 0 0 1 0.25 0.1V0a0.15 0.15 0 0 0 -0.15 0.15zM0.1 1.2v0.15h0.1V1.2zM0.25 1.5h1V1.4H0.25zM1.4 1.35V1.2H1.3v0.15zM1.25 1.5A0.15 0.15 0 0 0 1.4 1.35H1.3A0.05 0.05 0 0 1 1.25 1.4zM0.1 1.35A0.15 0.15 0 0 0 0.25 1.5V1.4A0.05 0.05 0 0 1 0.2 1.35z" fill="#000000"/></svg>