<svg width="16px" height="16px" viewBox="0 0 0.3 0.3" fill="none" xmlns="http://www.w3.org/2000/svg"><path d="M0.05 0.13V0.12H0.04v0.01zm0.08 0V0.12H0.12v0.01zm0 0.08H0.12v0.01h0.01zm0.14 -0.14h0.01v-0.004l-0.003 -0.003zm-0.06 -0.06 0.007 -0.007L0.214 0H0.21zM0.05 0.14h0.02V0.12h-0.02zm0.01 0.08V0.17H0.04V0.22zm0 -0.05v-0.04H0.04v0.04zm0.01 -0.01h-0.02v0.02h0.02zm0.01 -0.01a0.01 0.01 0 0 1 -0.01 0.01v0.02A0.03 0.03 0 0 0 0.1 0.15zM0.07 0.14a0.01 0.01 0 0 1 0.01 0.01h0.02A0.03 0.03 0 0 0 0.07 0.12zM0.12 0.13v0.08h0.02v-0.08zm0.01 0.09h0.02v-0.02h-0.02zM0.18 0.19v-0.04H0.16v0.04zM0.15 0.12h-0.02v0.02h0.02zM0.18 0.15A0.03 0.03 0 0 0 0.15 0.12v0.02a0.01 0.01 0 0 1 0.01 0.01zM0.15 0.22A0.03 0.03 0 0 0 0.18 0.19H0.16a0.01 0.01 0 0 1 -0.01 0.01zM0.2 0.12v0.1h0.02V0.12zm0.01 0.02H0.26V0.12h-0.05zm0 0.04H0.24V0.16h-0.03zM0.04 0.1V0.03H0.02V0.1zm0.22 -0.03V0.1h0.02V0.07zM0.05 0.02h0.16V0h-0.16zm0.153 -0.003 0.06 0.06 0.014 -0.014 -0.06 -0.06zM0.04 0.03a0.01 0.01 0 0 1 0.01 -0.01V0A0.03 0.03 0 0 0 0.02 0.03zM0.02 0.24v0.03h0.02V0.24zm0.03 0.06h0.2v-0.02h-0.2zM0.28 0.27V0.24h-0.02v0.03zM0.25 0.3a0.03 0.03 0 0 0 0.03 -0.03h-0.02a0.01 0.01 0 0 1 -0.01 0.01zM0.02 0.27A0.03 0.03 0 0 0 0.05 0.3v-0.02a0.01 0.01 0 0 1 -0.01 -0.01z" fill="#000000"/></svg>